<svg xmlns="http://www.w3.org/2000/svg" width="14.122" height="13.238" viewBox="0 0 14.122 13.238"><defs><style>.a{fill:#fff;}</style></defs><g transform="translate(0 -16.017)"><path class="a" d="M50.647,200.348H41.269A1.27,1.27,0,0,1,40,199.08V192.4a.441.441,0,1,1,.883,0v6.675a.387.387,0,0,0,.386.386h9.378a.387.387,0,0,0,.386-.386V192.4a.441.441,0,1,1,.883,0v6.675A1.27,1.27,0,0,1,50.647,200.348Z" transform="translate(-38.896 -171.093)"/><path class="a" d="M13.681,22.856a.44.44,0,0,1-.312-.129L7.88,17.238a1.16,1.16,0,0,0-1.638,0L.754,22.726A.441.441,0,0,1,.13,22.1l5.488-5.488a2.043,2.043,0,0,1,2.886,0L13.993,22.1a.441.441,0,0,1-.312.753Z"/><path class="a" d="M179.972,293.72h-3.53a.441.441,0,0,1-.441-.441v-3.917a1.381,1.381,0,0,1,1.379-1.379h1.655a1.381,1.381,0,0,1,1.379,1.379v3.917A.441.441,0,0,1,179.972,293.72Zm-3.089-.883h2.648v-3.475a.5.5,0,0,0-.5-.5h-1.655a.5.5,0,0,0-.5.5Z" transform="translate(-171.145 -264.465)"/></g></svg>