<svg xmlns="http://www.w3.org/2000/svg" width="15.039" height="15.039" viewBox="0 0 15.039 15.039"><defs><style>.a{fill:#fff;}</style></defs><path class="a" d="M19.193,19.893A2.2,2.2,0,0,1,17,17.7V14.41a1.41,1.41,0,0,1,2.82,0v3.133a.47.47,0,1,1-.94,0V14.41a.47.47,0,0,0-.94,0V17.7a1.253,1.253,0,1,0,2.506,0V13.47a.47.47,0,0,1,.94,0V17.7A2.2,2.2,0,0,1,19.193,19.893Z" transform="translate(-6.348 -4.854)"/><path class="a" d="M9.28,13.785H1.723A1.725,1.725,0,0,1,0,12.062V1.723A1.725,1.725,0,0,1,1.723,0H9.556a1.725,1.725,0,0,1,1.723,1.723V7.037a.47.47,0,1,1-.94,0V1.723A.784.784,0,0,0,9.556.94H1.723a.784.784,0,0,0-.783.783V12.062a.784.784,0,0,0,.783.783H9.28a.47.47,0,0,1,0,.94Z"/><path class="a" d="M10.049,14.44H3.47a.47.47,0,0,1,0-.94h6.579a.47.47,0,0,1,0,.94Z" transform="translate(-1.12 -5.041)"/><path class="a" d="M10.049,10.44H3.47a.47.47,0,0,1,0-.94h6.579a.47.47,0,0,1,0,.94Z" transform="translate(-1.12 -3.547)"/><path class="a" d="M6.916,6.44H3.47a.47.47,0,0,1,0-.94H6.916a.47.47,0,0,1,0,.94Z" transform="translate(-1.12 -2.054)"/></svg>