<svg xmlns="http://www.w3.org/2000/svg" width="15.353" height="15.353" viewBox="0 0 15.353 15.353"><defs><style>.a{fill:#fff;}</style></defs><path class="a" d="M18.408,18.082h0V12.451c0-2.755-.593-4.877-3.813-4.877a3.343,3.343,0,0,0-3.011,1.655h-.045v-1.4H8.489v10.25h3.179V13.006c0-1.336.253-2.629,1.908-2.629,1.631,0,1.655,1.525,1.655,2.714v4.99Z" transform="translate(-3.059 -2.729)"/><path class="a" d="M.4,7.977H3.579v10.25H.4Z" transform="translate(-0.143 -2.874)"/><path class="a" d="M1.844,0A1.852,1.852,0,1,0,3.687,1.844,1.844,1.844,0,0,0,1.844,0Z" transform="translate(0 0)"/></svg>