<svg xmlns="http://www.w3.org/2000/svg" width="12.93" height="9.697" viewBox="0 0 12.93 9.697"><defs><style>.a{fill:#fff;}</style></defs><path class="a" d="M11.717,59.882H1.212A1.213,1.213,0,0,0,0,61.094v7.273a1.213,1.213,0,0,0,1.212,1.212H11.717a1.213,1.213,0,0,0,1.212-1.212V61.094A1.213,1.213,0,0,0,11.717,59.882Zm0,.808a.4.4,0,0,1,.155.031L6.465,65.408,1.057,60.721a.4.4,0,0,1,.155-.031Zm0,8.081H1.212a.4.4,0,0,1-.4-.4V61.575L6.2,66.248a.4.4,0,0,0,.53,0l5.392-4.673v6.792A.4.4,0,0,1,11.717,68.771Z" transform="translate(0 -59.882)"/></svg>