<svg xmlns="http://www.w3.org/2000/svg" width="18.494" height="18.494" viewBox="0 0 18.494 18.494"><defs><style>.a{fill:#fff;stroke:#000;stroke-width:0.5px;}</style></defs><path class="a" d="M15.358,2.636a9,9,0,1,0,0,12.721A8.99,8.99,0,0,0,15.358,2.636Zm-.376,11.439a9.016,9.016,0,0,0-1.344-1,14.548,14.548,0,0,0,.543-3.51h2.645a7.778,7.778,0,0,1-1.844,4.505ZM1.169,9.57H3.814a14.548,14.548,0,0,0,.543,3.51,9.017,9.017,0,0,0-1.344,1A7.778,7.778,0,0,1,1.169,9.57ZM3.013,3.918a9.016,9.016,0,0,0,1.344,1,14.548,14.548,0,0,0-.543,3.51H1.169A7.778,7.778,0,0,1,3.013,3.918ZM8.424,5.032a7.788,7.788,0,0,1-2.672-.677C6.238,3.1,7.134,1.6,8.424,1.23Zm0,1.149V8.424H4.961A13.506,13.506,0,0,1,5.4,5.452,8.935,8.935,0,0,0,8.424,6.181Zm0,3.389v2.243a8.935,8.935,0,0,0-3.029.729A13.506,13.506,0,0,1,4.961,9.57Zm0,3.392v3.8c-1.29-.372-2.186-1.873-2.672-3.125A7.788,7.788,0,0,1,8.424,12.962Zm1.146,0a7.788,7.788,0,0,1,2.672.677c-.486,1.252-1.382,2.753-2.672,3.125Zm0-1.149V9.57h3.463a13.506,13.506,0,0,1-.435,2.972,8.935,8.935,0,0,0-3.029-.729Zm0-3.389V6.181A8.935,8.935,0,0,0,12.6,5.452a13.506,13.506,0,0,1,.435,2.972Zm0-3.392V1.23c1.29.372,2.186,1.873,2.672,3.125A7.789,7.789,0,0,1,9.571,5.032ZM12.145,1.8a7.814,7.814,0,0,1,2.032,1.3,7.879,7.879,0,0,1-.922.7A8.63,8.63,0,0,0,12.145,1.8Zm-7.406,2a7.882,7.882,0,0,1-.922-.7A7.814,7.814,0,0,1,5.849,1.8a8.633,8.633,0,0,0-1.11,2Zm0,10.393a8.631,8.631,0,0,0,1.11,2,7.814,7.814,0,0,1-2.032-1.3A7.879,7.879,0,0,1,4.74,14.193Zm8.516,0a7.882,7.882,0,0,1,.922.7,7.814,7.814,0,0,1-2.032,1.3,8.63,8.63,0,0,0,1.11-2Zm.926-5.77a14.548,14.548,0,0,0-.543-3.51,9.018,9.018,0,0,0,1.344-1,7.778,7.778,0,0,1,1.844,4.505Z" transform="translate(0.25 0.25)"/></svg>