<svg xmlns="http://www.w3.org/2000/svg" width="19.293" height="13.508" viewBox="0 0 19.293 13.508"><defs><style>.a{fill:#fff;}</style></defs><path class="a" d="M18.9-3.968a2.417,2.417,0,0,0-1.7-1.7c-1.51-.413-7.549-.413-7.549-.413a58.671,58.671,0,0,0-7.548.4A2.466,2.466,0,0,0,.4-3.968,25.468,25.468,0,0,0,0,.672a25.374,25.374,0,0,0,.4,4.64,2.417,2.417,0,0,0,1.7,1.7c1.525.413,7.549.413,7.549.413a58.67,58.67,0,0,0,7.548-.4,2.417,2.417,0,0,0,1.7-1.7,25.476,25.476,0,0,0,.4-4.64A24.175,24.175,0,0,0,18.9-3.968ZM7.723,3.564V-2.22L12.745.672Zm0,0" transform="translate(0 6.082)"/></svg>